<?xml version="1.0" encoding="UTF-8"?>
<svg version="1.1" xmlns="http://www.w3.org/2000/svg" width="512" height="512">
<path d="M0 0 C1.03895048 -0.00507454 2.07790097 -0.01014909 3.1483348 -0.0153774 C4.29860111 -0.01587516 5.44886742 -0.01637292 6.63399029 -0.01688576 C7.84906991 -0.02126801 9.06414954 -0.02565027 10.31604975 -0.03016531 C13.69955859 -0.04124752 17.08302108 -0.04778319 20.46654141 -0.05234647 C24.11149893 -0.05829602 27.75643932 -0.0699074 31.40138531 -0.08063698 C40.20894941 -0.10517467 49.01651919 -0.11978953 57.82410696 -0.13269705 C60.31065607 -0.13640779 62.79720461 -0.14038111 65.28375316 -0.14444971 C80.71657045 -0.16968348 96.14938861 -0.19174206 111.58222198 -0.20417786 C115.15796506 -0.20710767 118.7337081 -0.21006932 122.3094511 -0.21308327 C123.19821175 -0.21382932 124.0869724 -0.21457537 125.00266518 -0.21534403 C139.40664147 -0.22800319 153.81049446 -0.26123307 168.21441308 -0.3028851 C182.99393357 -0.34527387 197.77339089 -0.36886929 212.55297202 -0.37409842 C220.85472873 -0.37751587 229.15629272 -0.38931028 237.45798969 -0.42220116 C244.52672411 -0.45016083 251.59522633 -0.46121905 258.66401175 -0.4500057 C262.27183038 -0.44480857 265.87916245 -0.447773 269.48691082 -0.47247124 C273.3957558 -0.49900786 277.30393254 -0.48693913 281.21284771 -0.47098732 C282.92820893 -0.49181045 282.92820893 -0.49181045 284.67822391 -0.51305425 C292.33876522 -0.43568625 292.33876522 -0.43568625 296.29520988 2.4875145 C298.6163888 5.86905925 299.23931333 8.31072765 299.22500896 12.31625938 C299.22468166 13.16706581 299.22435436 14.01787224 299.22401714 14.89446068 C299.21877529 15.82488182 299.21353344 16.75530296 299.20813274 17.71391869 C299.20534596 19.75035144 299.2026761 21.78678435 299.20010662 23.82321739 C299.19553133 25.44505975 299.19553133 25.44505975 299.19086361 27.0996666 C299.17953126 32.82243587 299.2000194 38.54512521 299.21545696 44.26787376 C299.23374551 51.55179392 299.24245038 58.83529053 299.21350384 66.11919212 C299.19095173 72.00387314 299.20251505 77.88763247 299.23651028 83.77224731 C299.24327551 86.01245733 299.23761068 88.2527414 299.2191534 90.49288559 C299.19494401 93.63399911 299.2142323 96.77212666 299.24328899 99.91313744 C299.22590176 100.83343742 299.20851452 101.75373741 299.1906004 102.70192528 C299.32989747 109.96334025 302.08778266 113.16139041 307.11389446 118.13701439 C308.98718298 120.54919786 310.7139349 123.04618279 312.42639446 125.57451439 C313.1273222 126.6069326 313.1273222 126.6069326 313.84241009 127.66020775 C341.89686522 169.462671 356.62776477 216.43612972 356.42639446 266.76201439 C356.42423931 267.73256767 356.42208416 268.70312096 356.4198637 269.70308495 C356.36882786 284.03132336 356.02147885 298.05887221 353.11389446 312.13701439 C352.9152177 313.12008568 352.71654095 314.10315697 352.51184368 315.1160183 C340.9911139 370.51044862 311.07171962 423.06617983 266.11389446 458.13701439 C265.13033978 458.92592064 264.14678509 459.71482689 263.13342571 460.52763939 C241.32668623 477.8761732 216.53358296 491.29799913 190.11389446 500.13701439 C189.28051556 500.41625755 188.44713665 500.69550072 187.58850384 500.9832058 C178.48481591 503.97839669 169.31623237 506.46455562 159.92639446 508.38701439 C159.1921928 508.53815697 158.45799114 508.68929955 157.70154095 508.8450222 C142.32231947 511.79468996 127.11187921 512.51202705 111.48889446 512.44951439 C110.51834118 512.44735924 109.5477879 512.44520409 108.54782391 512.44298363 C94.21613476 512.3919355 80.19698736 512.0317704 66.11389446 509.13701439 C64.65523968 508.84697533 64.65523968 508.84697533 63.16711712 508.55107689 C7.84293971 497.243691 -44.92267472 466.95715709 -79.88610554 422.13701439 C-80.67501179 421.1534597 -81.46391804 420.16990501 -82.27673054 419.15654564 C-100.38215784 396.39840706 -113.6743238 370.67666586 -122.88610554 343.13701439 C-123.14859089 342.35390892 -123.41107624 341.57080345 -123.68151569 340.76396751 C-126.33919648 332.67085462 -128.3533419 324.47719962 -130.07360554 316.13701439 C-130.30624104 315.01794701 -130.30624104 315.01794701 -130.54357624 313.8762722 C-133.54637107 298.44828871 -134.26134321 283.1912313 -134.19860554 267.51201439 C-134.19645039 266.54146111 -134.19429523 265.57090782 -134.19207478 264.57094383 C-134.14103894 250.24270541 -133.79368992 236.21515657 -130.88610554 222.13701439 C-130.68742878 221.1539431 -130.48875202 220.17087181 -130.28405476 219.15801048 C-118.77739704 163.83124206 -88.87376996 111.1064174 -43.88610554 76.13701439 C-42.90383991 75.3493972 -41.92157429 74.56178001 -40.90954304 73.75029564 C-31.88502795 66.57765236 -22.22082645 59.30437484 -11.88610554 54.13701439 C-11.88245991 53.56151848 -11.87881428 52.98602257 -11.87505817 52.39308739 C-11.83317038 46.39033025 -11.76378101 40.38833324 -11.67858601 34.38603783 C-11.65040192 32.14750848 -11.62917468 29.90888009 -11.61510944 27.67021751 C-11.59364506 24.44769745 -11.54697493 21.22636501 -11.49548054 18.00420189 C-11.4942519 17.00710197 -11.49302326 16.01000206 -11.49175739 14.982687 C-11.36819602 9.08916286 -10.81774306 5.62702907 -6.88610554 1.13701439 C-4.41013732 -0.10096972 -2.77060392 0.00716058 0 0 Z " fill="#85ADDE" transform="translate(144.88610553741455,-0.13701438903808594)"/>
<path d="M0 0 C1.03895048 -0.00507454 2.07790097 -0.01014909 3.1483348 -0.0153774 C4.29860111 -0.01587516 5.44886742 -0.01637292 6.63399029 -0.01688576 C7.84906991 -0.02126801 9.06414954 -0.02565027 10.31604975 -0.03016531 C13.69955859 -0.04124752 17.08302108 -0.04778319 20.46654141 -0.05234647 C24.11149893 -0.05829602 27.75643932 -0.0699074 31.40138531 -0.08063698 C40.20894941 -0.10517467 49.01651919 -0.11978953 57.82410696 -0.13269705 C60.31065607 -0.13640779 62.79720461 -0.14038111 65.28375316 -0.14444971 C80.71657045 -0.16968348 96.14938861 -0.19174206 111.58222198 -0.20417786 C115.15796506 -0.20710767 118.7337081 -0.21006932 122.3094511 -0.21308327 C123.19821175 -0.21382932 124.0869724 -0.21457537 125.00266518 -0.21534403 C139.40664147 -0.22800319 153.81049446 -0.26123307 168.21441308 -0.3028851 C182.99393357 -0.34527387 197.77339089 -0.36886929 212.55297202 -0.37409842 C220.85472873 -0.37751587 229.15629272 -0.38931028 237.45798969 -0.42220116 C244.52672411 -0.45016083 251.59522633 -0.46121905 258.66401175 -0.4500057 C262.27183038 -0.44480857 265.87916245 -0.447773 269.48691082 -0.47247124 C273.3957558 -0.49900786 277.30393254 -0.48693913 281.21284771 -0.47098732 C282.92820893 -0.49181045 282.92820893 -0.49181045 284.67822391 -0.51305425 C292.33876522 -0.43568625 292.33876522 -0.43568625 296.29520988 2.4875145 C299.23153088 6.76521182 299.25493057 10.35933132 299.23337078 15.35977745 C299.23447796 16.48060586 299.23447796 16.48060586 299.2356075 17.62407726 C299.2368147 20.15958359 299.23074752 22.69502145 299.22473431 25.23052025 C299.22396731 27.07313398 299.22361476 28.91574792 299.22363949 30.75836182 C299.22227892 35.88412147 299.21431445 41.00985324 299.20515013 46.13560414 C299.19796168 50.5674245 299.19433388 54.99924512 299.19064319 59.43106955 C299.17834178 73.91480975 299.15362743 88.39852076 299.12579966 102.88223799 C299.11632516 107.81894147 299.10731915 112.75564565 299.09852886 117.69235039 C299.03147651 155.2142136 298.94169873 192.73597468 298.8263464 230.25772095 C298.81637681 233.50874512 298.80643389 236.75976937 298.79651165 240.01079369 C298.79404614 240.81715029 298.79158064 241.62350689 298.78904042 242.45429854 C298.74849308 255.78213755 298.71604195 269.10998528 298.68639465 282.43785251 C298.65534358 296.33120723 298.61685797 310.22452603 298.57110441 324.11784023 C298.5458726 331.8384119 298.52390275 339.55896171 298.5105505 347.2795639 C298.49931858 353.77204879 298.48147627 360.26447115 298.45472743 366.75691146 C298.4413385 370.05728773 298.43227042 373.35757699 298.42968082 376.65798187 C298.42637592 380.22678393 298.41095191 383.79533013 298.39236736 387.36408043 C298.3943021 388.40801903 298.39623683 389.45195763 298.3982302 390.52753073 C298.3907647 391.47990966 298.38329921 392.43228859 298.37560749 393.41352749 C298.37332917 394.23517267 298.37105085 395.05681786 298.36870348 395.90336138 C298.08140715 398.42179783 297.46573243 399.99957116 296.11389446 402.13701439 C291.45535539 405.22702426 287.2501736 405.55530408 281.81360149 405.47759056 C281.00317898 405.47802864 280.19275646 405.47846672 279.35777569 405.47891808 C276.69550243 405.47683833 274.03386937 405.45354619 271.37170696 405.42998314 C269.51940537 405.42438428 267.66709931 405.42011555 265.81479168 405.41711998 C260.95182195 405.40569405 256.08912323 405.37624627 251.22626019 405.34300804 C246.25915473 405.31225857 241.29200527 405.29860423 236.32483196 405.28349876 C226.58773407 405.25137439 216.85083685 405.20020531 207.11389446 405.13701439 C207.05267406 404.31114326 206.99145367 403.48527214 206.92837811 402.63437462 C206.84409557 401.55203041 206.75981304 400.4696862 206.67297649 399.35454369 C206.5911311 398.28117256 206.5092857 397.20780144 206.42496014 396.10190392 C205.47328973 387.03115821 200.46732361 378.54127097 194.11389446 372.13701439 C183.4736171 363.53423695 172.65243115 361.13146107 159.11389446 362.13701439 C147.87241873 364.45621503 138.75681541 371.87439715 131.11389446 380.13701439 C125.67838929 377.71290404 121.44312673 374.06600762 118.11389446 369.13701439 C117.45420234 364.9389736 118.33580864 361.27705959 119.11389446 357.13701439 C120.96682526 345.98544858 121.43969921 335.10650308 121.44983196 323.82060814 C121.45627825 322.10764015 121.46300788 320.39467321 121.47000408 318.68170738 C121.48186836 315.1243846 121.48569525 311.56715824 121.48449993 308.00981712 C121.48429507 303.46043555 121.51181589 298.91166697 121.54604435 294.36243153 C121.56828602 290.83905764 121.57233864 287.31583344 121.57128048 283.79239655 C121.57363211 282.1143084 121.58243088 280.43621586 121.59794521 278.75819778 C121.61759067 276.41845034 121.61177859 274.08005611 121.59973431 271.74028587 C121.61097332 271.0560656 121.62221233 270.37184532 121.63379192 269.6668911 C121.55807989 263.86483156 119.27633374 260.63110359 115.58073711 256.3687191 C112.86794935 254.09079688 109.49159458 252.91559297 106.25842571 251.53935814 C105.06161427 251.0193045 105.06161427 251.0193045 103.84062481 250.48874474 C102.11067408 249.73772721 100.37935899 248.98984639 98.64685345 248.24474144 C94.01109818 246.25063447 89.38538331 244.23346094 84.75842571 242.21904564 C83.80251537 241.80358482 82.84660503 241.38812401 81.86172771 240.96007347 C71.57301176 236.48157117 61.34034318 231.8805536 51.11389446 227.26201439 C49.42615051 226.50021385 47.73840637 225.73841371 46.05066204 224.976614 C43.76177553 223.94341482 41.47300721 222.90996532 39.18498516 221.87485313 C37.84787964 221.27026596 36.50982929 220.66776342 35.17077923 220.06749535 C33.70002933 219.4021665 32.23494824 218.72424896 30.77380657 218.0380764 C29.9914262 217.67611168 29.20904583 217.31414696 28.40295696 216.94121361 C27.69735638 216.60983391 26.99175579 216.27845421 26.26477337 215.9370327 C18.72693876 213.13333897 12.15604115 215.5226045 5.15686321 218.69170189 C4.15268353 219.16865501 3.14850384 219.64560814 2.11389446 220.13701439 C0.07345865 221.07719029 -1.96814906 222.01482842 -4.01110554 222.94951439 C-4.90055866 223.3684597 -5.79001179 223.78740501 -6.70641804 224.21904564 C-8.88610554 225.13701439 -8.88610554 225.13701439 -10.88610554 225.13701439 C-10.97950657 196.81700158 -11.05006407 168.49701182 -11.09335423 140.17687607 C-11.11398798 127.02763155 -11.14212427 113.87848268 -11.18786335 100.72929955 C-11.22770602 89.26977558 -11.25353243 77.81032088 -11.26245952 66.35072958 C-11.26767857 60.28176782 -11.27996247 54.21300422 -11.30902576 48.14410591 C-11.33615406 42.43305509 -11.34455566 36.72228429 -11.33853626 31.01117516 C-11.33963765 28.91413032 -11.34760673 26.81707621 -11.36292744 24.72008705 C-11.38281458 21.85793475 -11.37804912 18.99684109 -11.3671236 16.13466454 C-11.37877497 15.30391486 -11.39042634 14.47316518 -11.40243077 13.61724126 C-11.34794538 8.34036975 -10.39314976 5.32240434 -6.88610554 1.13701439 C-4.41013732 -0.10096972 -2.77060392 0.00716058 0 0 Z " fill="#E9F5FE" transform="translate(144.88610553741455,-0.13701438903808594)"/>
<path d="M0 0 C0.80752213 0.37318863 1.61504425 0.74637726 2.44703674 1.13087463 C5.0861526 2.35434897 7.71251267 3.60301086 10.33984375 4.8515625 C13.12918229 6.15129641 15.9216712 7.44409099 18.71435547 8.73661804 C20.63983124 9.62827809 22.56430135 10.5221128 24.48779297 11.41804504 C34.88510264 16.25328706 45.38796045 20.84047241 55.90234375 25.4140625 C58.47685281 26.53408576 61.05111158 27.65465321 63.62425232 28.77781677 C65.14611515 29.4420271 66.66879508 30.10437038 68.19252014 30.76429749 C82.54734079 37.02777682 82.54734079 37.02777682 85.71484375 41.1015625 C86.18792969 41.69195312 86.66101563 42.28234375 87.1484375 42.890625 C89.65902933 46.4176156 89.42177223 49.13445423 89.4543457 53.43530273 C89.4609169 54.15300339 89.4674881 54.87070404 89.47425842 55.6101532 C89.49405901 58.00182209 89.50568955 60.39342692 89.515625 62.78515625 C89.51970053 63.61016191 89.52377605 64.43516758 89.52797508 65.28517342 C89.54889719 69.67994054 89.56315355 74.07467619 89.57250977 78.46948242 C89.58125147 82.05462267 89.60182835 85.63936021 89.6340332 89.22436523 C89.82019453 110.36927208 89.38878113 130.65057947 85.27734375 151.4765625 C84.21362549 150.93870117 83.14990723 150.40083984 82.05395508 149.84667969 C71.02530815 144.34162836 62.01308205 142.44432349 49.734375 145.30078125 C38.47503345 149.0626949 29.70245136 156.93072626 24.27734375 167.4765625 C20.01866337 177.14360503 20.6808104 187.24072371 22.27734375 197.4765625 C21.53572998 197.4859082 20.79411621 197.49525391 20.0300293 197.50488281 C16.67428661 197.55852001 13.31994813 197.64218043 9.96484375 197.7265625 C8.79759766 197.74074219 7.63035156 197.75492188 6.42773438 197.76953125 C5.30947266 197.80175781 4.19121094 197.83398438 3.0390625 197.8671875 C2.00740967 197.88813477 0.97575684 197.90908203 -0.0871582 197.93066406 C-2.83839235 198.24401041 -2.83839235 198.24401041 -4.55541992 200.35839844 C-6.02972784 203.03380013 -6.24971366 204.46480586 -5.72265625 207.4765625 C-4.22385924 209.75425089 -4.22385924 209.75425089 -1.72265625 211.4765625 C0.98529132 211.84689293 3.29826749 211.98816598 6 211.9453125 C6.74189072 211.95236206 7.48378143 211.95941162 8.24815369 211.9666748 C10.61240289 211.9886914 12.97552201 211.98570509 15.33984375 211.9765625 C18.45634199 211.96453824 21.57115061 211.97816223 24.6875 212.0078125 C25.40317642 211.99649292 26.11885284 211.98517334 26.85621643 211.97351074 C28.87915039 211.99414062 28.87915039 211.99414062 32.27734375 212.4765625 C34.25170898 214.50585938 34.25170898 214.50585938 35.27734375 216.4765625 C28.18591222 221.2946643 20.79213078 225.4873782 13.27734375 229.6015625 C11.90811768 230.35518066 11.90811768 230.35518066 10.51123047 231.12402344 C7.78211145 232.60678466 5.03588642 234.04935904 2.27734375 235.4765625 C1.35824219 235.96479492 0.43914062 236.45302734 -0.5078125 236.95605469 C-6.66243794 240.03120334 -11.84076818 241.78101602 -18.72265625 240.4765625 C-22.61583423 239.16110801 -26.19861667 237.41909569 -29.84765625 235.5390625 C-30.85175537 235.03834229 -31.85585449 234.53762207 -32.89038086 234.02172852 C-35.84888428 232.53290121 -38.7884643 231.01266509 -41.72265625 229.4765625 C-42.51140137 229.06631836 -43.30014648 228.65607422 -44.11279297 228.23339844 C-57.01890765 221.45049556 -68.89290018 213.48475624 -79.5390625 203.484375 C-81.72065915 201.42207848 -81.72065915 201.42207848 -84.2265625 199.53515625 C-103.71034388 183.46637254 -113.65430914 155.80996895 -116.72265625 131.4765625 C-117.23737679 124.76801892 -117.17068249 118.03642218 -117.15625 111.3125 C-117.16082377 109.42159846 -117.16613285 107.53069857 -117.1721344 105.63980103 C-117.18099147 101.71178345 -117.17872172 97.78397009 -117.16870117 93.85595703 C-117.15712621 88.83016939 -117.17758987 83.80507554 -117.20661831 78.77937889 C-117.22496324 74.8896949 -117.22469287 71.00017857 -117.21898079 67.11046219 C-117.21882787 65.25654744 -117.22484788 63.40262113 -117.23727226 61.54874802 C-117.25217617 58.96483099 -117.24151627 56.38221647 -117.22436523 53.79833984 C-117.2340332 53.0408847 -117.24370117 52.28342957 -117.25366211 51.50302124 C-117.18215498 46.34952855 -116.00482871 43.4241825 -112.72265625 39.4765625 C-107.69212219 35.22503759 -101.1938376 32.71523826 -95.203125 30.11328125 C-94.30507645 29.71760452 -93.40702789 29.3219278 -92.48176575 28.91426086 C-89.62706225 27.65841008 -86.76864282 26.41127438 -83.91015625 25.1640625 C-82.03557277 24.33972581 -80.16122196 23.51485981 -78.28710938 22.68945312 C-68.58242311 18.4243423 -58.85225306 14.22655445 -49.06352234 10.15763855 C-44.18737642 8.12416052 -39.37967035 5.97216589 -34.59765625 3.7265625 C-33.98556305 3.44053162 -33.37346985 3.15450073 -32.74282837 2.85980225 C-30.19040677 1.6614328 -27.65599889 0.4422729 -25.1484375 -0.84765625 C-16.35646973 -5.22062451 -8.63351133 -4.19951744 0 0 Z " fill="#09A76D" transform="translate(177.72265625,217.5234375)"/>
<path d="M0 0 C1.26108078 0.0001133 1.26108078 0.0001133 2.54763794 0.00022888 C3.91020218 0.00797081 3.91020218 0.00797081 5.30029297 0.01586914 C6.22969696 0.01728409 7.15910095 0.01869904 8.1166687 0.02015686 C11.09197171 0.02576486 14.06720011 0.03831871 17.04248047 0.05102539 C19.0568023 0.05603936 21.07112531 0.06060245 23.08544922 0.06469727 C28.02948849 0.07573689 32.97347182 0.0930069 37.91748047 0.11352539 C37.11310547 0.73227539 36.30873047 1.35102539 35.47998047 1.98852539 C32.87873528 3.8551658 32.87873528 3.8551658 31.91748047 6.11352539 C31.80947838 8.87178313 31.76257251 11.60546711 31.75926208 14.3644104 C31.75432411 15.2277488 31.74938613 16.0910872 31.74429852 16.98058736 C31.72886939 19.89029516 31.72054828 22.7999808 31.7121582 25.7097168 C31.70258393 27.7888051 31.69257412 29.86789144 31.68215942 31.94697571 C31.65505542 37.60575518 31.63407567 43.26454305 31.61415744 48.92335176 C31.5923317 54.83175985 31.56492636 60.74014193 31.5381012 66.64852905 C31.48812806 77.8434355 31.44320641 89.03835635 31.40007883 100.23329103 C31.35074589 112.97555472 31.29581317 125.71779232 31.24039924 138.46003079 C31.12650827 164.67783799 31.01968477 190.89567021 30.91748047 217.11352539 C29.97598145 216.7911792 29.03448242 216.46883301 28.06445312 216.13671875 C18.71188906 213.09586568 11.46656976 216.05298234 2.91748047 220.11352539 C0.87704466 221.05370129 -1.16456305 221.99133942 -3.20751953 222.92602539 C-4.09697266 223.3449707 -4.98642578 223.76391602 -5.90283203 224.19555664 C-8.08251953 225.11352539 -8.08251953 225.11352539 -10.08251953 225.11352539 C-10.17592056 196.79351258 -10.24647806 168.47352283 -10.28976822 140.15338707 C-10.31040197 127.00414255 -10.33853827 113.85499368 -10.38427734 100.70581055 C-10.42412002 89.24628659 -10.44994642 77.78683189 -10.45887351 66.32724059 C-10.46409256 60.25827882 -10.47637646 54.18951523 -10.50543976 48.12061691 C-10.53256805 42.4095661 -10.54096965 36.69879529 -10.53495026 30.98768616 C-10.53605164 28.89064132 -10.54402073 26.79358722 -10.55934143 24.69659805 C-10.57922858 21.83444575 -10.57446311 18.97335209 -10.5635376 16.11117554 C-10.57518896 15.28042586 -10.58684033 14.44967618 -10.59884477 13.59375226 C-10.54435938 8.31688075 -9.58956376 5.29891534 -6.08251953 1.11352539 C-3.79620459 -0.02963208 -2.53904547 -0.00760193 0 0 Z " fill="#D7EBFD" transform="translate(144.08251953125,-0.113525390625)"/>
<path d="M0 0 C1.18439415 0.00136711 1.18439415 0.00136711 2.39271545 0.00276184 C3.2040242 -0.00152328 4.01533295 -0.00580841 4.85122681 -0.01022339 C6.56857876 -0.01597091 8.28595506 -0.01646385 10.00331116 -0.01213074 C12.63288391 -0.0089734 15.26132901 -0.03241439 17.89076233 -0.05778503 C19.55807861 -0.06005823 21.22539793 -0.06076143 22.89271545 -0.05973816 C23.68028732 -0.06894791 24.46785919 -0.07815765 25.27929688 -0.08764648 C28.21466328 -0.06273961 30.60031369 -0.02930364 33.21058655 1.39778137 C34.74802381 4.33206873 34.54376801 6.86648488 34.50209045 10.15901184 C34.49784561 10.82064835 34.49360077 11.48228485 34.48922729 12.16397095 C34.47245864 14.27341219 34.4348127 16.38189155 34.3966217 18.49104309 C34.38157239 19.9226699 34.36788441 21.35431171 34.35560608 22.78596497 C34.322562 26.29213597 34.27079338 29.79774563 34.2091217 33.30354309 C35.54873962 33.27997742 35.54873962 33.27997742 36.91542053 33.25593567 C40.23090927 33.2047887 43.54597846 33.16718497 46.86170959 33.13874817 C48.29634722 33.1236672 49.73093879 33.10319929 51.16542053 33.07722473 C53.22828029 33.04080872 55.29053028 33.02381066 57.35365295 33.01057434 C59.21534119 32.98700867 59.21534119 32.98700867 61.11463928 32.96296692 C64.2091217 33.30354309 64.2091217 33.30354309 66.11488342 34.30207825 C67.90079807 37.56868428 67.6148277 40.99199583 67.57240295 44.61994934 C67.57315071 45.83834755 67.57315071 45.83834755 67.57391357 47.08135986 C67.57157454 48.79696603 67.56185598 50.51257573 67.54530334 52.22810364 C67.52167882 54.85968045 67.52474732 57.49024636 67.53138733 60.12190247 C67.5258116 61.78792415 67.51870238 63.45394156 67.50990295 65.11994934 C67.51081436 65.90954544 67.51172577 66.69914154 67.51266479 67.51266479 C67.44015963 73.07250517 67.44015963 73.07250517 65.2091217 75.30354309 C62.1363678 75.53059387 62.1363678 75.53059387 58.2325592 75.49885559 C57.54731171 75.4960257 56.86206421 75.4931958 56.15605164 75.49028015 C53.96523143 75.47907591 51.77481855 75.45397168 49.5841217 75.42854309 C48.0997526 75.41851357 46.6153771 75.40938767 45.1309967 75.40119934 C41.4902391 75.37913603 37.84972014 75.34460485 34.2091217 75.30354309 C34.2405426 76.68860046 34.2405426 76.68860046 34.27259827 78.10163879 C34.34078701 81.52898632 34.39092633 84.95561289 34.42884827 88.38337708 C34.4489593 89.8665657 34.47625244 91.34967508 34.51087952 92.83259583 C34.55942522 94.96503744 34.58209366 97.09643086 34.5997467 99.22932434 C34.6311676 101.15385437 34.6311676 101.15385437 34.66322327 103.11726379 C34.2091217 106.30354309 34.2091217 106.30354309 32.67884827 108.21858215 C29.2394832 109.72950923 25.99396576 109.75193187 22.3028717 109.73713684 C21.54115662 109.74237869 20.77944153 109.74762054 19.99464417 109.75302124 C18.38760088 109.75943155 16.78051061 109.75811723 15.17347717 109.74958801 C12.71706068 109.74107062 10.26296523 109.76986073 7.80677795 109.80158997 C6.24297657 109.80320199 4.67917107 109.80262443 3.1153717 109.79963684 C2.38298279 109.81087082 1.65059387 109.8221048 0.89601135 109.8336792 C-2.39812997 109.78873145 -4.47772649 109.5076985 -7.26060486 107.69343567 C-9.30965403 104.49334914 -9.24790606 102.35412541 -9.1815033 98.56916809 C-9.16861267 97.27366028 -9.15572205 95.97815247 -9.1424408 94.64338684 C-9.10902196 93.28009485 -9.0751622 91.9168136 -9.0408783 90.55354309 C-9.02080537 89.17466245 -9.00255597 87.79575397 -8.9861908 86.41682434 C-8.93903277 83.04502565 -8.87322367 79.67463623 -8.7908783 76.30354309 C-10.07720154 76.33496399 -10.07720154 76.33496399 -11.38951111 76.36701965 C-14.58006302 76.43530836 -17.77024175 76.48539822 -20.96128845 76.52326965 C-22.3406451 76.54334951 -23.71991699 76.57061975 -25.09898376 76.6053009 C-27.08444809 76.65397126 -29.07054084 76.67440727 -31.0565033 76.69416809 C-32.84749451 76.72558899 -32.84749451 76.72558899 -34.67466736 76.75764465 C-37.7908783 76.30354309 -37.7908783 76.30354309 -40.18077087 74.77326965 C-42.39642221 71.37470576 -42.34719384 68.32339769 -42.28697205 64.39729309 C-42.28842728 63.635578 -42.28988251 62.87386292 -42.29138184 62.08906555 C-42.28972519 60.48197089 -42.2781899 58.87485999 -42.25743103 57.26789856 C-42.22847381 54.81164483 -42.23682576 52.3575504 -42.24986267 49.90119934 C-42.2436248 48.3373868 -42.23523348 46.77358105 -42.22447205 45.20979309 C-42.2288755 44.11120972 -42.2288755 44.11120972 -42.23336792 42.99043274 C-42.17808605 39.99401946 -41.91643462 37.58935042 -40.70591736 34.83381653 C-37.78187675 32.49726801 -35.4104294 32.85261164 -31.71665955 32.91291809 C-30.69091072 32.92140778 -30.69091072 32.92140778 -29.6444397 32.93006897 C-27.46336931 32.95243493 -25.28395076 33.00262544 -23.1033783 33.05354309 C-21.62358434 33.07360809 -20.14376459 33.09185887 -18.66392517 33.10823059 C-15.0390407 33.15229835 -11.41512074 33.22132487 -7.7908783 33.30354309 C-7.80658875 31.91063049 -7.80658875 31.91063049 -7.82261658 30.48957825 C-7.85667034 27.04928619 -7.88176323 23.60917282 -7.90074158 20.16877747 C-7.91080872 18.67883989 -7.92446347 17.18892212 -7.9417572 15.6990509 C-7.96597482 13.55935281 -7.97735393 11.41991556 -7.9861908 9.28010559 C-8.00190125 7.34772034 -8.00190125 7.34772034 -8.01792908 5.376297 C-7.60674728 -0.18836331 -4.94885483 0.06453738 0 0 Z " fill="#FEFEFE" transform="translate(150.79087829589844,277.6964569091797)"/>
<path d="M0 0 C3.60232777 2.76884802 6.83999221 5.74065994 10 9 C10.58394531 9.58394531 11.16789062 10.16789062 11.76953125 10.76953125 C12.17558594 11.17558594 12.58164062 11.58164062 13 12 C16.5228067 10.49480077 18.77736925 8.41817813 21.5 5.75 C31.10012283 -3.08097353 40.62256278 -6.34319293 53.3984375 -6.2109375 C64.36141027 -5.5688545 73.91828068 -0.6340689 81.375 7.375 C89.51054188 17.1343698 91.90055308 27.39221332 91.21289062 39.97119141 C90.56870795 46.11013408 88.40503961 51.89244059 85 57 C82.18712636 57.42868669 79.60243012 57.66006683 76.7734375 57.75 C75.54096786 57.78988037 75.54096786 57.78988037 74.28359985 57.83056641 C72.54036092 57.87648621 70.79684802 57.91283966 69.05322266 57.94042969 C67.2776062 57.9799238 65.50238014 58.04798685 63.72900391 58.14550781 C52.02803393 58.78767417 52.02803393 58.78767417 47 57 C42.98851759 53.19471849 41.06171794 49.07413765 39 44 C38.27138157 42.61742514 37.52603866 41.24324449 36.75 39.88671875 C35.88375 38.30310547 35.88375 38.30310547 35 36.6875 C32.63629456 32.56996387 32.63629456 32.56996387 28.82421875 30.08203125 C25.99201542 29.9732995 23.75602861 30.43396811 21.46118164 32.15209961 C19.40334385 34.75456815 18.25635881 37.52592535 16.93359375 40.56640625 C16.65403336 41.20110336 16.37447296 41.83580048 16.08644104 42.48973083 C15.19680939 44.51114911 14.31641443 46.53640133 13.4375 48.5625 C12.55420898 50.591786 11.66887605 52.6200797 10.77784729 54.64598083 C9.97104088 56.48122518 9.17173661 58.31976212 8.37280273 60.15844727 C7 63 7 63 5 65 C4.37351562 63.92878906 3.74703125 62.85757813 3.1015625 61.75390625 C2.27631376 60.3566101 1.45077804 58.95948341 0.625 57.5625 C0.2125 56.85544922 -0.2 56.14839844 -0.625 55.41992188 C-1.02460938 54.74638672 -1.42421875 54.07285156 -1.8359375 53.37890625 C-2.20251465 52.7557251 -2.5690918 52.13254395 -2.94677734 51.49047852 C-3.94300753 49.83167299 -3.94300753 49.83167299 -6 49 C-7.75590877 48.88068952 -9.51614607 48.82280132 -11.27587891 48.79467773 C-12.3768692 48.77473251 -13.4778595 48.75478729 -14.61221313 48.73423767 C-15.80494843 48.71752518 -16.99768372 48.70081268 -18.2265625 48.68359375 C-20.05349136 48.6524221 -20.05349136 48.6524221 -21.91732788 48.62062073 C-25.8198262 48.55507416 -29.7223935 48.49621645 -33.625 48.4375 C-36.26563222 48.39431965 -38.90625739 48.35070552 -41.546875 48.30664062 C-48.03117643 48.19938756 -54.51554694 48.09763071 -61 48 C-64.32123941 36.78481227 -63.96723625 26.70339452 -59 16 C-57.25342614 13.06052123 -55.27830919 10.54310057 -53 8 C-52.49855469 7.39542969 -51.99710938 6.79085938 -51.48046875 6.16796875 C-38.1291523 -8.74262553 -16.49811314 -9.8868108 0 0 Z " fill="#FA2C3B" transform="translate(261,367)"/>
<path d="M0 0 C0.00364563 1.04108917 0.00729126 2.08217834 0.01104736 3.15481567 C0.04832529 13.06682318 0.10644642 22.97852938 0.18390274 32.89030647 C0.22306315 37.98352287 0.25540305 43.07657448 0.27099609 48.16992188 C0.28637327 53.10445625 0.32117895 58.03853657 0.36830902 62.97286606 C0.38290946 64.83583455 0.39102841 66.69886795 0.39188385 68.56189346 C0.42406234 103.57084738 10.51719052 134.38391215 35.1875 159.625 C52.97197223 177.24345923 76.9950531 190.56047016 100 200 C99 203 99 203 97.30102539 204.16674805 C94.8973589 205.3612571 92.48805671 206.53797313 90.0625 207.6875 C89.24458984 208.10322266 88.42667969 208.51894531 87.58398438 208.94726562 C80.70662321 212.23737792 74.69947186 213.58102286 67.31567383 211.09692383 C64.43594742 209.85911765 61.66128494 208.49803065 58.875 207.0625 C57.87090088 206.56177979 56.86680176 206.06105957 55.83227539 205.54516602 C52.87377197 204.05633871 49.93419195 202.53610259 47 201 C46.21125488 200.58975586 45.42250977 200.17951172 44.60986328 199.75683594 C31.7037486 192.97393306 19.82975607 185.00819374 9.18359375 175.0078125 C7.0019971 172.94551598 7.0019971 172.94551598 4.49609375 171.05859375 C-14.98768763 154.98981004 -24.93165289 127.33340645 -28 103 C-28.51472054 96.29145642 -28.44802624 89.55985968 -28.43359375 82.8359375 C-28.43816752 80.94503596 -28.4434766 79.05413607 -28.44947815 77.16323853 C-28.45833522 73.23522095 -28.45606547 69.30740759 -28.44604492 65.37939453 C-28.43446996 60.35360689 -28.45493362 55.32851304 -28.48396206 50.30281639 C-28.50230699 46.4131324 -28.50203662 42.52361607 -28.49632454 38.63389969 C-28.49617162 36.77998494 -28.50219163 34.92605863 -28.51461601 33.07218552 C-28.52951992 30.48826849 -28.51886002 27.90565397 -28.50170898 25.32177734 C-28.51137695 24.5643222 -28.52104492 23.80686707 -28.53100586 23.02645874 C-28.45959887 17.88018302 -27.21009976 14.98488457 -24 11 C-18.70902208 6.28576375 -7.1062041 0 0 0 Z " fill="#02905D" transform="translate(89,246)"/>
<path d="M0 0 C4.32521796 1.45300291 5.97188665 5.86026532 8 9.671875 C8.54757604 11.07426011 9.0871647 12.47978023 9.62036133 13.88769531 C11.67462776 18.78402021 13.83197556 23.24916731 18 26.671875 C25.80081535 29.51954888 34.67229451 28.40960525 42.8125 27.984375 C46.18896104 27.8782212 49.56454755 27.7961775 52.94206238 27.73222351 C55.03531262 27.68511773 57.12816728 27.60964691 59.2191925 27.50227356 C66.25634204 27.24143358 66.25634204 27.24143358 70.1394043 29.48901367 C72 31.671875 72 31.671875 72.625 34.609375 C71.98640184 37.738506 71.19454175 39.42870858 68.86523438 41.62200928 C64.56825339 44.04060777 59.2276285 43.3769042 54.4375 43.3359375 C53.21345459 43.34072113 51.98940918 43.34550476 50.72827148 43.35043335 C48.1427278 43.35383278 45.55714116 43.34462763 42.97167969 43.32373047 C39.01399904 43.29696966 35.05915492 43.32348125 31.1015625 43.35546875 C28.58853541 43.35216466 26.07551008 43.34575847 23.5625 43.3359375 C22.37906006 43.34605865 21.19562012 43.35617981 19.97631836 43.36660767 C11.77765402 43.24963124 11.77765402 43.24963124 7.84106445 40.32495117 C5.80918518 37.39690025 3.93054087 34.46950675 2.1875 31.359375 C1.58292969 30.29074219 0.97835937 29.22210938 0.35546875 28.12109375 C-0.09183594 27.31285156 -0.53914063 26.50460937 -1 25.671875 C-3.02108816 28.70350724 -4.43223724 31.66650159 -5.93359375 34.984375 C-6.50562074 36.23708816 -7.07789393 37.48968892 -7.65039062 38.7421875 C-8.54622789 40.70934291 -9.43998073 42.67737023 -10.3293457 44.64746094 C-11.19147827 46.55420564 -12.06191818 48.45697789 -12.93359375 50.359375 C-13.44978271 51.49761719 -13.96597168 52.63585937 -14.49780273 53.80859375 C-15.8236852 56.33580804 -16.73805742 57.97369153 -19 59.671875 C-22.375 60.234375 -22.375 60.234375 -26 59.671875 C-29.4728559 56.31272789 -31.16372569 53.5697626 -32.61572266 48.97802734 C-34.64478506 43.1668753 -36.88284519 38.33192515 -42 34.671875 C-52.80480622 31.53545837 -64.72479258 32.71414787 -75.84033203 33.19512939 C-82.48935483 33.46203175 -89.14371009 33.55173898 -95.79683304 33.6586113 C-98.11270411 33.71014239 -100.42393015 33.8028271 -102.73812866 33.9034729 C-104.15792176 33.94614233 -105.57773112 33.98827528 -106.99755859 34.02978516 C-108.23234955 34.08043121 -109.4671405 34.13107727 -110.73934937 34.18325806 C-114.98131328 33.51797106 -116.42898626 32.04304205 -119 28.671875 C-119 25.23868368 -118.79416605 22.90250356 -116.91281128 19.98718262 C-113.94970436 17.94965955 -110.86752672 18.23800154 -107.39501953 18.25195312 C-106.62232727 18.24348358 -105.84963501 18.23501404 -105.05352783 18.22628784 C-102.49645575 18.20286859 -99.93998377 18.20189693 -97.3828125 18.203125 C-95.60545612 18.19602558 -93.82810204 18.18832691 -92.05075073 18.18005371 C-88.32331983 18.16659703 -84.59610076 18.16504507 -80.86865234 18.17089844 C-76.09447476 18.17679098 -71.32131536 18.14622754 -66.54733467 18.10578156 C-62.87554458 18.07991479 -59.20399984 18.07702628 -55.5321312 18.08067322 C-53.77227091 18.07898052 -52.01239946 18.0693235 -50.25262833 18.05152893 C-47.78898576 18.02936184 -45.32740578 18.03902815 -42.86376953 18.05664062 C-42.13839996 18.04337738 -41.4130304 18.03011414 -40.66567993 18.01644897 C-36.78340983 18.08085258 -35.15686244 18.54267636 -32.12106323 21.04309082 C-30.05508568 23.6036034 -28.32301229 26.13173729 -26.6875 28.984375 C-26.17574219 29.86738281 -25.66398437 30.75039063 -25.13671875 31.66015625 C-24.76160156 32.32402344 -24.38648438 32.98789062 -24 33.671875 C-21.50446841 30.6130416 -19.96517668 27.58747398 -18.44140625 23.953125 C-17.97283203 22.85613281 -17.50425781 21.75914062 -17.02148438 20.62890625 C-16.04941768 18.32561569 -15.08066165 16.0209251 -14.11523438 13.71484375 C-13.64537109 12.61785156 -13.17550781 11.52085937 -12.69140625 10.390625 C-12.27060791 9.38966797 -11.84980957 8.38871094 -11.41625977 7.35742188 C-8.75231907 2.3059915 -6.04453447 -0.40000596 0 0 Z " fill="#FEFCFC" transform="translate(290,396.328125)"/>
<path d="M0 0 C3.36247662 3.05881684 5.43111796 6.22014943 7.625 10.1875 C9.61782258 14.29559236 9.61782258 14.29559236 13 17 C15.24974161 17.15495763 17.50371536 17.25010928 19.7578125 17.31640625 C20.42086395 17.33718735 21.08391541 17.35796844 21.76705933 17.37937927 C23.88626694 17.44479231 26.005599 17.50372105 28.125 17.5625 C29.56121081 17.60569309 30.99740902 17.64930764 32.43359375 17.69335938 C35.95559594 17.80046499 39.47773825 17.90175575 43 18 C37.83902287 24.22258411 32.24729645 29.96849452 26.5625 35.7109375 C26.06799347 36.21076771 25.57348694 36.71059792 25.06399536 37.22557449 C22.45372052 39.86237604 19.8399198 42.49562943 17.22363281 45.12646484 C15.06747028 47.29603492 12.9188393 49.47267248 10.77636719 51.65576172 C8.17399751 54.30743335 5.55957955 56.9466323 2.93600464 59.5773201 C1.94301527 60.57701072 0.95427615 61.58094249 -0.02999878 62.58921432 C-1.40527628 63.99613383 -2.79801608 65.38591907 -4.19140625 66.77490234 C-4.97717041 67.56875336 -5.76293457 68.36260437 -6.57250977 69.18051147 C-9.52058998 71.39020033 -11.31719815 71.99115571 -15 72 C-17.33151245 70.56616211 -17.33151245 70.56616211 -19.58935547 68.33984375 C-20.4530072 67.50437012 -21.31665894 66.66889648 -22.20648193 65.80810547 C-23.1283429 64.88143066 -24.05020386 63.95475586 -25 63 C-25.97448888 62.04556229 -26.95045271 61.09262848 -27.92779541 60.14111328 C-31.16762509 56.97372365 -34.3698207 53.76955786 -37.5703125 50.5625 C-38.74414768 49.38934004 -39.91813114 48.21632843 -41.09225464 47.04345703 C-43.5292732 44.60789992 -45.96450576 42.17057534 -48.3984375 39.73193359 C-51.52452531 36.60009193 -54.65515918 33.47283869 -57.78709602 30.34684753 C-60.20113287 27.93640992 -62.61280087 25.52361366 -65.02373886 23.1100769 C-66.17850153 21.95464614 -67.33401029 20.79996056 -68.49026871 19.64602661 C-70.09375541 18.04506206 -71.69403187 16.44095826 -73.29345703 14.8359375 C-74.20483429 13.92376465 -75.11621155 13.0115918 -76.0552063 12.07177734 C-78 10 -78 10 -78 9 C-72.73529043 8.67688266 -67.47641016 8.44205895 -62.20410156 8.28588867 C-60.41466763 8.22078016 -58.62591857 8.13224843 -56.83886719 8.01928711 C-44.95962288 7.28759452 -44.95962288 7.28759452 -40 9 C-35.9212015 12.89000997 -34.1561738 16.78666628 -32 22 C-30.90426462 23.9128965 -29.78450647 25.81257233 -28.625 27.6875 C-28.16351563 28.47511719 -27.70203125 29.26273437 -27.2265625 30.07421875 C-26.01583787 32.12852624 -26.01583787 32.12852624 -24 34 C-20.6288837 34.8344592 -20.6288837 34.8344592 -17 34 C-11.81791343 28.38531483 -9.19743926 19.9703125 -6.25 13.0625 C-5.27800203 10.80254127 -4.30414809 8.54337955 -3.328125 6.28515625 C-2.9043457 5.29394775 -2.48056641 4.30273926 -2.04394531 3.28149414 C-1 1 -1 1 0 0 Z " fill="#FA2C3B" transform="translate(288,421)"/>
<path d="M0 0 C1.16977256 -0.00935994 1.16977256 -0.00935994 2.36317688 -0.01890898 C4.97892055 -0.03487647 7.59373717 -0.02222042 10.20948792 -0.00964355 C12.08372034 -0.01506306 13.95794851 -0.02218475 15.83216858 -0.03088379 C20.92518616 -0.0491417 26.01788015 -0.04203907 31.1109035 -0.02936745 C36.43772434 -0.01925108 41.7645172 -0.02862947 47.09133911 -0.03491211 C56.03848756 -0.04219312 64.98550403 -0.03258955 73.93263245 -0.0135498 C84.27895424 0.00821312 94.62496067 0.00117355 104.97127479 -0.02085543 C113.85036845 -0.03900441 122.72936714 -0.04156999 131.60847336 -0.03110075 C136.9132743 -0.02486222 142.217927 -0.02403998 147.52271843 -0.0372467 C152.51079194 -0.04879699 157.49845879 -0.04079436 162.48648834 -0.01766968 C164.31786231 -0.01237793 166.14927048 -0.01390433 167.98063087 -0.02272034 C170.47957488 -0.03364137 172.97721353 -0.01995474 175.47607422 0 C176.20195266 -0.00892289 176.9278311 -0.01784577 177.67570585 -0.02703905 C181.23204471 0.02809649 183.21041046 0.45085011 186.25155735 2.35608673 C188.30152893 4.50793457 188.30152893 4.50793457 188.92652893 7.44543457 C188.08237123 11.5818073 186.58502331 12.89173626 183.30152893 15.50793457 C180.50313158 16.001344 178.31270429 16.18602475 175.52076721 16.14285278 C174.74414797 16.15065274 173.96752872 16.15845269 173.16737556 16.16648901 C170.56837978 16.18641253 167.97084774 16.17064398 165.37184143 16.15490723 C163.50731044 16.16168322 161.64278615 16.17058624 159.77827454 16.18145752 C154.71624608 16.20425962 149.65472692 16.19541069 144.59268951 16.17956209 C139.29656598 16.16690787 134.0004862 16.17864188 128.70436096 16.18649292 C119.81023831 16.19559086 110.9163232 16.18359771 102.02223206 16.15979004 C91.73774393 16.13257856 81.4537514 16.14139261 71.16927528 16.16892207 C62.34110075 16.19160795 53.51307547 16.19481574 44.68488121 16.18172872 C39.41136424 16.17393138 34.13808027 16.17290049 28.86457825 16.18941116 C23.90677427 16.20384901 18.94960957 16.19384659 13.99187469 16.16493988 C12.17179171 16.15832542 10.35165497 16.16023289 8.53159332 16.1712532 C6.04776491 16.18490661 3.56598809 16.16779773 1.08229065 16.14285278 C0.00033259 16.1595832 0.00033259 16.1595832 -1.1034832 16.1766516 C-4.95903066 16.10147559 -6.5938648 15.59117165 -9.64961243 13.15965843 C-11.69847107 10.50793457 -11.69847107 10.50793457 -12.26097107 7.44543457 C-10.93263672 0.50857741 -6.23978943 -0.07646784 0 0 Z " fill="#037C4F" transform="translate(200.69847106933594,197.4920654296875)"/>
<path d="M0 0 C0.78463749 -0.00623996 1.56927498 -0.01247993 2.37768936 -0.01890898 C5.00958463 -0.03487699 7.64055863 -0.02222025 10.27246094 -0.00964355 C12.15816794 -0.01506299 14.04387071 -0.02218465 15.92956543 -0.03088379 C21.05350598 -0.04914126 26.17712489 -0.04203958 31.30107117 -0.02936745 C36.65905637 -0.01925235 42.01701373 -0.02862898 47.375 -0.03491211 C56.37342278 -0.04219286 65.37171432 -0.03258957 74.37011719 -0.0135498 C84.77894229 0.00821971 95.18745401 0.00116865 105.59627151 -0.02085543 C114.52715363 -0.03899722 123.45794132 -0.04157371 132.38883591 -0.03110075 C137.72546273 -0.02485912 143.06194217 -0.02404861 148.39855957 -0.0372467 C153.41535641 -0.0487868 158.43174855 -0.04081311 163.44850159 -0.01766968 C165.29158353 -0.01237274 167.13469943 -0.01391314 168.97776794 -0.02272034 C171.49019841 -0.03362079 174.00132493 -0.01997986 176.51367188 0 C177.2463541 -0.00892289 177.97903633 -0.01784577 178.73392105 -0.02703905 C182.13511287 0.02557448 183.95994785 0.28505183 186.71343994 2.35218048 C188.80665339 5.27589769 188.77063113 6.98476751 188.25683594 10.50793457 C186.47699189 13.64385027 185.73375387 14.34896193 182.25683594 15.50793457 C179.74709263 15.61192172 177.26464985 15.66010718 174.75454712 15.66183472 C173.59830686 15.6684081 173.59830686 15.6684081 172.41870821 15.67511427 C169.82780171 15.68850196 167.23692922 15.694681 164.64599609 15.70080566 C162.79161932 15.70870649 160.93724409 15.71697542 159.08287048 15.72558594 C152.98722807 15.75180246 146.89157878 15.76711053 140.79589844 15.78137207 C138.69876475 15.78673139 136.60163112 15.7921089 134.50449753 15.79750443 C125.78363198 15.8191302 117.06276828 15.83786856 108.34188271 15.84912682 C95.83515291 15.86537796 83.3287332 15.89858752 70.82212031 15.95552766 C62.03224542 15.99418558 53.24245362 16.01375443 44.45249593 16.01904738 C39.20012971 16.02270575 33.94809424 16.0347791 28.69581985 16.06715012 C23.75618207 16.09715868 18.81707643 16.10356839 13.87736702 16.09176636 C12.06370501 16.09154504 10.25001881 16.09989841 8.43644142 16.1174202 C5.96134696 16.1400333 3.48819517 16.13185507 1.01309204 16.11593628 C0.29431338 16.12981837 -0.42446528 16.14370045 -1.16502512 16.15800321 C-5.01839496 16.0968785 -6.63833084 15.59133577 -9.69277382 13.16134071 C-11.74316406 10.50793457 -11.74316406 10.50793457 -12.30566406 7.44543457 C-10.97306638 0.48631336 -6.25366439 -0.07615954 0 0 Z " fill="#057D51" transform="translate(200.7431640625,167.4920654296875)"/>
<path d="M0 0 C0.78463749 -0.00623996 1.56927498 -0.01247993 2.37768936 -0.01890898 C5.00958463 -0.03487699 7.64055863 -0.02222025 10.27246094 -0.00964355 C12.15816794 -0.01506299 14.04387071 -0.02218465 15.92956543 -0.03088379 C21.05350598 -0.04914126 26.17712489 -0.04203958 31.30107117 -0.02936745 C36.65905637 -0.01925235 42.01701373 -0.02862898 47.375 -0.03491211 C56.37342278 -0.04219286 65.37171432 -0.03258957 74.37011719 -0.0135498 C84.77894229 0.00821971 95.18745401 0.00116865 105.59627151 -0.02085543 C114.52715363 -0.03899722 123.45794132 -0.04157371 132.38883591 -0.03110075 C137.72546273 -0.02485912 143.06194217 -0.02404861 148.39855957 -0.0372467 C153.41535641 -0.0487868 158.43174855 -0.04081311 163.44850159 -0.01766968 C165.29158353 -0.01237274 167.13469943 -0.01391314 168.97776794 -0.02272034 C171.49019841 -0.03362079 174.00132493 -0.01997986 176.51367188 0 C177.2463541 -0.00892289 177.97903633 -0.01784577 178.73392105 -0.02703905 C182.1340988 0.02555879 183.95833232 0.2834821 186.70953369 2.35218048 C188.25683594 4.50793457 188.25683594 4.50793457 188.75683594 7.50793457 C188.15129149 11.14120125 187.10094444 12.24937782 184.25683594 14.50793457 C181.25526182 16.00872163 178.16733746 15.65957778 174.87480164 15.66183472 C174.10482922 15.66621697 173.3348568 15.67059922 172.54155189 15.67511427 C169.94753934 15.68852655 167.35356078 15.69468655 164.75952148 15.70080566 C162.90529221 15.70870466 161.05106448 15.71697348 159.19683838 15.72558594 C153.0957588 15.75182734 146.99467227 15.76711469 140.89355469 15.78137207 C138.79549467 15.78673069 136.6974347 15.79210819 134.59937477 15.79750443 C125.8742606 15.81913536 117.1491483 15.83787341 108.42401409 15.84912682 C95.90769006 15.86537467 83.39167605 15.89857038 70.87546891 15.95552766 C62.08136793 15.99418661 53.28735001 16.01375465 44.49316627 16.01904738 C39.2374318 16.0227061 33.98202783 16.03478278 28.72638512 16.06715012 C23.78265683 16.09715988 18.83946026 16.10356795 13.8956604 16.09176636 C12.0803867 16.09154503 10.26508883 16.09989854 8.44989967 16.1174202 C5.97256275 16.14003332 3.49716675 16.13185498 1.01982117 16.11593628 C0.30036039 16.12981837 -0.4191004 16.14370045 -1.16036302 16.15800321 C-5.01532458 16.09690978 -6.63735036 15.5921038 -9.69319439 13.16134071 C-11.74316406 10.50793457 -11.74316406 10.50793457 -12.30566406 7.44543457 C-10.97306638 0.48631336 -6.25366439 -0.07615954 0 0 Z " fill="#077E52" transform="translate(200.7431640625,137.4920654296875)"/>
<path d="M0 0 C2.4375 1.75 2.4375 1.75 4 4 C4 5.32 4 6.64 4 8 C4.66386719 7.94199219 5.32773438 7.88398437 6.01171875 7.82421875 C10.63724853 7.58787781 13.21128736 7.48965653 17.1875 10.0625 C19 13 19 13 19.0625 16.625 C17.87659473 20.39199321 17.32932826 21.08893516 14 23 C11.2668457 23.41650391 11.2668457 23.41650391 8.17578125 23.4765625 C7.06525391 23.5075 5.95472656 23.5384375 4.81054688 23.5703125 C3.65619141 23.58835937 2.50183594 23.60640625 1.3125 23.625 C-0.9831631 23.67576093 -3.2787481 23.73023856 -5.57421875 23.7890625 C-7.09921997 23.81540771 -7.09921997 23.81540771 -8.6550293 23.84228516 C-10.95818918 23.73883502 -10.95818918 23.73883502 -12 25 C-12.16666667 28.5 -12.16666667 28.5 -12 32 C-9.66628973 34.33371027 -2.76002569 33.30297268 0.59179688 33.34179688 C7.16219506 33.56200508 12.88331887 34.86211382 17.65063477 39.66186523 C21.93229103 44.8994766 21.52218791 50.93471544 21.46875 57.4140625 C20.80788676 62.46966628 19.16151645 66.57516498 15.0625 69.75 C10.89618048 72.81096945 9.21739165 74 4 74 C3.896875 75.11375 3.79375 76.2275 3.6875 77.375 C3.460625 78.57125 3.23375 79.7675 3 81 C-0.73255448 83.48836965 -2.58440935 83.54226552 -7 83 C-9.4375 80.75 -9.4375 80.75 -11 78 C-11 76.68 -11 75.36 -11 74 C-11.74765625 74.05800781 -12.4953125 74.11601563 -13.265625 74.17578125 C-21.31152433 74.54437611 -21.31152433 74.54437611 -24.6875 71.875 C-26.22855021 68.49936622 -26.70055248 66.65844072 -26 63 C-22.37625795 59.38243268 -19.89077215 58.49045856 -14.82421875 58.390625 C-13.66728516 58.35839844 -12.51035156 58.32617188 -11.31835938 58.29296875 C-10.12017578 58.27878906 -8.92199219 58.26460937 -7.6875 58.25 C-5.8612207 58.20552734 -5.8612207 58.20552734 -3.99804688 58.16015625 C-0.99863167 58.08958177 2.0000117 58.03682136 5 58 C5 55.36 5 52.72 5 50 C3.7934375 49.97421875 2.586875 49.9484375 1.34375 49.921875 C-0.27086738 49.86555114 -1.88544933 49.8082048 -3.5 49.75 C-4.29148438 49.73582031 -5.08296875 49.72164062 -5.8984375 49.70703125 C-12.6510005 49.43028686 -17.94006377 47.69994373 -23.05859375 43.18359375 C-23.74115234 42.31927734 -23.74115234 42.31927734 -24.4375 41.4375 C-24.91058594 40.85871094 -25.38367188 40.27992187 -25.87109375 39.68359375 C-29.43981989 34.36137587 -28.58089831 27.0926776 -28 21 C-26.05615825 15.13214126 -22.13725955 11.92619189 -16.96484375 8.8125 C-15 8 -15 8 -11 8 C-10.896875 7.236875 -10.79375 6.47375 -10.6875 5.6875 C-9.14344149 -0.34836508 -5.91118319 -0.72593478 0 0 Z " fill="#0CA86F" transform="translate(217,30)"/>
<path d="M0 0 C1.02574883 0.00848969 1.02574883 0.00848969 2.07221985 0.01715088 C4.25329024 0.03951684 6.43270878 0.08970735 8.61328125 0.140625 C10.0930752 0.16069 11.57289495 0.17894078 13.05273438 0.1953125 C16.67761885 0.23938026 20.30153881 0.30840678 23.92578125 0.390625 C23.92578125 0.720625 23.92578125 1.050625 23.92578125 1.390625 C16.99578125 1.390625 10.06578125 1.390625 2.92578125 1.390625 C3.03938758 5.49540092 3.16614724 9.59903164 3.30078125 13.703125 C3.33171875 14.87037109 3.36265625 16.03761719 3.39453125 17.24023438 C3.43320313 18.35849609 3.471875 19.47675781 3.51171875 20.62890625 C3.54313965 21.66055908 3.57456055 22.69221191 3.60693359 23.75512695 C3.75252754 26.61905736 3.75252754 26.61905736 5.92578125 29.390625 C8.80045878 29.86907272 8.80045878 29.86907272 12.17578125 29.83203125 C13.42359375 29.85845703 14.67140625 29.88488281 15.95703125 29.91210938 C17.26671875 29.92564453 18.57640625 29.93917969 19.92578125 29.953125 C22.50924386 29.98745251 25.09261467 30.02999432 27.67578125 30.08203125 C28.825625 30.09435791 29.97546875 30.10668457 31.16015625 30.11938477 C33.92578125 30.390625 33.92578125 30.390625 35.92578125 32.390625 C36.21289062 35.15625 36.21289062 35.15625 36.26953125 38.640625 C36.29917969 39.8884375 36.32882813 41.13625 36.359375 42.421875 C36.40364583 45.06770833 36.44791667 47.71354167 36.4921875 50.359375 C36.52183594 51.6071875 36.55148438 52.855 36.58203125 54.140625 C36.61006836 55.86539063 36.61006836 55.86539063 36.63867188 57.625 C36.64677418 60.531826 36.64677418 60.531826 38.92578125 62.390625 C41.73980808 62.76301727 41.73980808 62.76301727 45.02734375 62.8046875 C46.2390625 62.84335937 47.45078125 62.88203125 48.69921875 62.921875 C49.97023437 62.9528125 51.24125 62.98375 52.55078125 63.015625 C53.82953125 63.05429687 55.10828125 63.09296875 56.42578125 63.1328125 C59.59230142 63.22733549 62.75881165 63.31288857 65.92578125 63.390625 C66.03402968 64.9933032 66.1114877 66.59808248 66.17578125 68.203125 C66.2221875 69.09644531 66.26859375 69.98976563 66.31640625 70.91015625 C65.92578125 73.390625 65.92578125 73.390625 64.40429688 75.18774414 C60.97264361 76.8532047 57.75576714 76.83919472 54.01953125 76.82421875 C53.25781616 76.8294606 52.49610107 76.83470245 51.71130371 76.84010315 C50.10426042 76.84651346 48.49717016 76.84519914 46.89013672 76.83666992 C44.43372023 76.82815253 41.97962478 76.85694264 39.5234375 76.88867188 C37.95963611 76.8902839 36.39583062 76.88970634 34.83203125 76.88671875 C34.09964233 76.89795273 33.36725342 76.90918671 32.6126709 76.92076111 C29.31852957 76.87581336 27.23893306 76.59478041 24.45605469 74.78051758 C22.40700551 71.58043105 22.46875349 69.44120732 22.53515625 65.65625 C22.54804688 64.36074219 22.5609375 63.06523437 22.57421875 61.73046875 C22.60763759 60.36717676 22.64149734 59.00389551 22.67578125 57.640625 C22.69585418 56.26174436 22.71410358 54.88283588 22.73046875 53.50390625 C22.77762677 50.13210756 22.84343587 46.76171813 22.92578125 43.390625 C22.06823242 43.41157227 21.21068359 43.43251953 20.32714844 43.45410156 C17.13659653 43.52239027 13.94641779 43.57248013 10.75537109 43.61035156 C9.37601445 43.63043142 7.99674256 43.65770166 6.61767578 43.69238281 C4.63221146 43.74105317 2.64611871 43.76148918 0.66015625 43.78125 C-0.53383789 43.80219727 -1.72783203 43.82314453 -2.95800781 43.84472656 C-6.07421875 43.390625 -6.07421875 43.390625 -8.46411133 41.86035156 C-10.67976266 38.46178767 -10.63053429 35.4104796 -10.5703125 31.484375 C-10.57176773 30.72265991 -10.57322296 29.96094482 -10.57472229 29.17614746 C-10.57306564 27.5690528 -10.56153035 25.9619419 -10.54077148 24.35498047 C-10.51181426 21.89872674 -10.52016621 19.44463231 -10.53320312 16.98828125 C-10.52696526 15.4244687 -10.51857393 13.86066296 -10.5078125 12.296875 C-10.51221596 11.19829163 -10.51221596 11.19829163 -10.51670837 10.07751465 C-10.46142651 7.08110137 -10.19977508 4.67643233 -8.98925781 1.92089844 C-6.0652172 -0.41565008 -3.69376986 -0.06030645 0 0 Z " fill="#E4F4FB" transform="translate(119.07421875,310.609375)"/>
<path d="M0 0 C0.82293045 -0.00990463 1.6458609 -0.01980927 2.49372864 -0.03001404 C3.84268219 -0.02326157 3.84268219 -0.02326157 5.21888733 -0.01637268 C6.16875015 -0.02323593 7.11861298 -0.03009918 8.09725952 -0.03717041 C11.24350345 -0.05550217 14.38925174 -0.05159173 17.53553772 -0.0459137 C19.71885339 -0.05047251 21.90216761 -0.05577718 24.08547974 -0.0617981 C28.66451339 -0.0707418 33.24337275 -0.06829179 37.82240295 -0.05836487 C43.69508372 -0.04687513 49.56716323 -0.06708074 55.43976498 -0.09628201 C59.9496036 -0.11461443 64.45929737 -0.11435741 68.96916389 -0.10864449 C71.13454087 -0.1084909 73.29992744 -0.11456577 75.46526909 -0.12693596 C78.49160009 -0.14178762 81.51681052 -0.13121133 84.54310608 -0.11402893 C85.44038422 -0.1236969 86.33766235 -0.13336487 87.26213074 -0.14332581 C93.31168568 -0.07127963 93.31168568 -0.07127963 96.49819946 2.23544312 C98.51289683 5.23103728 98.59598593 6.84720159 97.94569397 10.38768005 C95.94968706 13.09583844 94.34545766 15.0597329 90.9672699 15.8512001 C88.51396108 16.0394466 86.10537127 16.0632161 83.64491272 16.03465271 C82.71587128 16.04341431 81.78682983 16.0521759 80.82963562 16.061203 C77.76367768 16.08318018 74.69916615 16.06864989 71.63319397 16.05174255 C69.49997176 16.05511116 67.36675141 16.05996415 65.23353577 16.0662384 C60.7646811 16.07360748 56.29632642 16.06290272 51.82752991 16.03953552 C46.10055747 16.01104818 40.3747566 16.02745191 34.64782715 16.05739784 C30.24341512 16.0754696 25.83928064 16.06971324 21.43486023 16.05675888 C19.32334759 16.05342456 17.21180971 16.05751285 15.10032654 16.06915665 C12.14836429 16.08186297 9.19829643 16.06249072 6.24647522 16.03465271 C4.93871628 16.04983444 4.93871628 16.04983444 3.60453796 16.06532288 C-0.74975 15.98928726 -2.54748791 15.7682705 -6.13560486 13.07380676 C-8.05430603 10.38768005 -8.05430603 10.38768005 -8.05430603 6.76268005 C-6.64078811 1.99205707 -5.06674323 0.01722572 0 0 Z " fill="#0DA86F" transform="translate(291.05430603027344,253.61231994628906)"/>
<path d="M0 0 C0.92889542 -0.00686325 1.85779083 -0.0137265 2.81483459 -0.02079773 C5.88590778 -0.03910149 8.95647185 -0.03522304 12.02758789 -0.02954102 C14.16223823 -0.03410115 16.29688709 -0.03940622 18.43153381 -0.04542542 C22.90623945 -0.0543636 27.38076668 -0.05192534 31.85546875 -0.04199219 C37.59014432 -0.0305027 43.32420413 -0.05071043 49.05879879 -0.07990932 C53.46745212 -0.09825457 57.87595744 -0.09798216 62.28463936 -0.0922718 C64.39895046 -0.09211838 66.51327146 -0.09818014 68.62754631 -0.11056328 C71.5841218 -0.12543924 74.53955407 -0.11482079 77.49609375 -0.09765625 C78.36950409 -0.10732422 79.24291443 -0.11699219 80.14279175 -0.12695312 C84.19787367 -0.07765083 86.31670952 0.10287438 89.85597229 2.2518158 C91.81274414 4.40405273 91.81274414 4.40405273 92.43774414 7.34155273 C91.58331392 11.52826083 90.18734918 12.79838833 86.81274414 15.40405273 C83.71102139 16.13083732 80.68659332 16.08787957 77.51196289 16.05102539 C76.58292145 16.05978699 75.65388 16.06854858 74.69668579 16.07757568 C71.63072785 16.09955286 68.56621632 16.08502257 65.50024414 16.06811523 C63.36702193 16.07148384 61.23380158 16.07633683 59.10058594 16.08261108 C54.63173127 16.08998016 50.16337659 16.0792754 45.69458008 16.0559082 C39.96760765 16.02742086 34.24180677 16.04382459 28.51487732 16.07377052 C24.11046529 16.09184228 19.70633081 16.08608592 15.3019104 16.07313156 C13.19039776 16.06979724 11.07885988 16.07388553 8.96737671 16.08552933 C6.01541446 16.09823565 3.0653466 16.0788634 0.11352539 16.05102539 C-1.19423355 16.06620712 -1.19423355 16.06620712 -2.52841187 16.08169556 C-6.88169367 16.00567751 -8.67907481 15.78615106 -12.26464844 13.09017944 C-14.18725586 10.40405273 -14.18725586 10.40405273 -14.24975586 6.77905273 C-11.92938165 -0.5915477 -6.73561943 -0.03463581 0 0 Z " fill="#0BA76E" transform="translate(297.187255859375,283.595947265625)"/>
<path d="M0 0 C0.92889542 -0.00846954 1.85779083 -0.01693909 2.81483459 -0.02566528 C5.88589157 -0.04906737 8.95644849 -0.05005668 12.02758789 -0.04882812 C14.16223858 -0.05592764 16.29688735 -0.06362633 18.43153381 -0.07189941 C22.90623275 -0.08535153 27.38075524 -0.08690962 31.85546875 -0.08105469 C37.59024874 -0.07515732 43.32418252 -0.10574882 49.05879879 -0.14617157 C53.46745873 -0.17201817 57.87591409 -0.17492874 62.28463936 -0.17127991 C64.39896332 -0.17297393 66.51329644 -0.18264349 68.62754631 -0.20042419 C71.58430534 -0.22255395 74.53934074 -0.21294222 77.49609375 -0.1953125 C78.36950409 -0.20857574 79.24291443 -0.22183899 80.14279175 -0.23550415 C84.50333235 -0.17507719 86.2979534 0.03331019 89.89112854 2.73181152 C91.81274414 5.41992188 91.81274414 5.41992188 91.87524414 9.04492188 C90.66494812 12.88939158 90.31037567 13.59036803 86.81274414 15.41992188 C83.71588338 15.87201453 80.64315063 15.85017717 77.51782227 15.83984375 C76.57756699 15.84831329 75.63731171 15.85678284 74.66856384 15.86550903 C71.56023642 15.88891027 68.45240299 15.88990054 65.34399414 15.88867188 C63.1845276 15.89577083 61.02506295 15.90346944 58.86560059 15.91174316 C54.33962764 15.92519465 49.81382915 15.92675338 45.2878418 15.92089844 C39.48346549 15.91499751 33.67992422 15.94560763 27.87570953 15.98601532 C23.41647824 16.01184219 18.95744946 16.01477435 14.49815369 16.01112366 C12.35788369 16.01281917 10.21760477 16.02250287 8.07740784 16.04026794 C5.08692194 16.0623615 2.09814521 16.05280486 -0.89233398 16.03515625 C-2.22186852 16.05505112 -2.22186852 16.05505112 -3.57826233 16.0753479 C-9.54709878 15.99334736 -9.54709878 15.99334736 -12.76818848 13.10803223 C-14.71662512 9.41714851 -14.35877341 7.37379362 -13.18725586 3.41992188 C-9.59801941 -0.64295086 -5.02120847 -0.01680899 0 0 Z " fill="#0BA86E" transform="translate(297.187255859375,69.580078125)"/>
<path d="M0 0 C0.92889542 -0.00846954 1.85779083 -0.01693909 2.81483459 -0.02566528 C5.88589157 -0.04906737 8.95644849 -0.05005668 12.02758789 -0.04882812 C14.16223858 -0.05592764 16.29688735 -0.06362633 18.43153381 -0.07189941 C22.90623275 -0.08535153 27.38075524 -0.08690962 31.85546875 -0.08105469 C37.59024874 -0.07515732 43.32418252 -0.10574882 49.05879879 -0.14617157 C53.46745873 -0.17201817 57.87591409 -0.17492874 62.28463936 -0.17127991 C64.39896332 -0.17297393 66.51329644 -0.18264349 68.62754631 -0.20042419 C71.58430534 -0.22255395 74.53934074 -0.21294222 77.49609375 -0.1953125 C78.36950409 -0.20857574 79.24291443 -0.22183899 80.14279175 -0.23550415 C84.50333235 -0.17507719 86.2979534 0.03331019 89.89112854 2.73181152 C91.81274414 5.41992188 91.81274414 5.41992188 91.87524414 9.04492188 C90.66588761 12.88640732 90.30487976 13.58834135 86.81274414 15.41992188 C83.75163969 15.87126078 80.71530879 15.85018723 77.62548828 15.83984375 C76.69659286 15.84831329 75.76769745 15.85678284 74.81065369 15.86550903 C71.73959671 15.88891112 68.66903979 15.88990043 65.59790039 15.88867188 C63.4632497 15.89577139 61.32860093 15.90347008 59.19395447 15.91174316 C54.71925553 15.92519528 50.24473304 15.92675337 45.77001953 15.92089844 C40.03523954 15.91500107 34.30130577 15.94559257 28.56668949 15.98601532 C24.15802955 16.01186192 19.74957419 16.01477249 15.34084892 16.01112366 C13.22652497 16.01281768 11.11219184 16.02248724 8.99794197 16.04026794 C6.04118294 16.0623977 3.08614755 16.05278597 0.12939453 16.03515625 C-1.18072098 16.05505112 -1.18072098 16.05505112 -2.51730347 16.0753479 C-6.87784407 16.01492094 -8.67246512 15.80653356 -12.26564026 13.10803223 C-14.18725586 10.41992188 -14.18725586 10.41992188 -14.24975586 6.79492188 C-11.93080262 -0.57116488 -6.73365969 -0.02254159 0 0 Z " fill="#0AA76E" transform="translate(297.187255859375,313.580078125)"/>
<path d="M0 0 C7.95082932 -2.00456356 17.28947842 -3.27321129 24.7156601 0.98339844 C33.97085952 7.41981801 41.56271798 16.31524592 49.14807129 24.56878662 C52.14934595 27.80786608 55.21909447 30.98066017 58.28320312 34.16015625 C64.25661322 40.37825588 70.15156728 46.6642179 76 53 C74.55498928 56.02635794 73.20222558 58.06541705 70.6875 60.3125 C70.11386719 60.84488281 69.54023438 61.37726563 68.94921875 61.92578125 C66.24925737 63.41373592 64.91894209 62.83250938 62 62 C60.20446777 60.80917358 60.20446777 60.80917358 58.47460938 59.21630859 C57.78455811 58.58150574 57.09450684 57.94670288 56.38354492 57.29266357 C51.33151386 52.43325963 46.35774605 47.50042799 41.40625 42.5390625 C40.20713636 41.34062355 39.0078744 40.14233299 37.80847168 38.94418335 C35.31242015 36.44959706 32.818164 33.95323342 30.32519531 31.45556641 C27.12281511 28.24744607 23.91590754 25.04389458 20.70767975 21.84162331 C18.23873671 19.37628081 15.77216414 16.90857783 13.30632019 14.44013596 C12.12364683 13.25679415 10.94022643 12.07419848 9.75605774 10.89235306 C8.11164059 9.25045873 6.47043427 7.60542279 4.83007812 5.95947266 C4.09152084 5.22395172 4.09152084 5.22395172 3.33804321 4.47357178 C0 1.11427149 0 1.11427149 0 0 Z " fill="#E3202F" transform="translate(210,430)"/>
<path d="M0 0 C1.09248047 -0.01836914 1.09248047 -0.01836914 2.20703125 -0.03710938 C4.09782978 -0.04235188 5.98815581 0.06516615 7.875 0.1875 C8.535 0.8475 9.195 1.5075 9.875 2.1875 C9.15054688 2.56261719 8.42609375 2.93773437 7.6796875 3.32421875 C-3.82947125 9.41640011 -11.69538771 16.43495362 -16.0625 29.0625 C-18.1419433 37.04858284 -17.4660163 45.14140219 -16.125 53.1875 C-23.715 53.1875 -31.305 53.1875 -39.125 53.1875 C-42.71699282 42.41152153 -41.90921118 32.49651232 -37.125 22.1875 C-35.37842614 19.24802123 -33.40330919 16.73060057 -31.125 14.1875 C-30.62355469 13.58292969 -30.12210938 12.97835938 -29.60546875 12.35546875 C-21.78027456 3.61638327 -11.41531672 0.01021048 0 0 Z " fill="#E1202D" transform="translate(239.125,360.8125)"/>
</svg>
